HIERARCHY
ROOT Hips
{
   OFFSET 0.00000 0.00000 0.00000
   CHANNELS 6 Xposition Yposition Zposition Zrotation Xrotation Yrotation
   JOINT RightUpLeg
   {
      OFFSET -9.840380 -9.533777 0.111817
      CHANNELS 3 Zrotation Xrotation Yrotation
      JOINT RightLeg
      {
         OFFSET 0.000000 -48.864969 1.509970
         CHANNELS 3 Zrotation Xrotation Yrotation
         JOINT RightFoot
         {
            OFFSET 0.278904 -46.301641 -1.606649
            CHANNELS 3 Zrotation Xrotation Yrotation
            JOINT RightToes
            {
               OFFSET 0.044000 -4.856599 9.349010
               CHANNELS 3 Zrotation Xrotation Yrotation
               End Site
               {
                  OFFSET -0.088000 -0.151193 10.757769
               }
            }
         }
      }
   }
   JOINT Spine
   {
      OFFSET 0.000000 13.079551 0.000000
      CHANNELS 3 Zrotation Xrotation Yrotation
      JOINT Spine1
      {
         OFFSET 0.000000 28.223142 0.140429
         CHANNELS 3 Zrotation Xrotation Yrotation
         JOINT HEad
         {
            OFFSET 0.000000 9.607577 0.012475
            CHANNELS 3 Zrotation Xrotation Yrotation
            End Site
            {
               OFFSET -0.319000 14.051621 2.765345
            }
         }
         JOINT LeftShoulder1
         {
            OFFSET 9.889000 -0.398477 -0.242000
            CHANNELS 3 Zrotation Xrotation Yrotation
            JOINT LeftArm
            {
               OFFSET 11.310971 -0.003718 0.354335
               CHANNELS 3 Zrotation Xrotation Yrotation
               JOINT LeftForeArm
               {
                  OFFSET 36.043591 0.109058 -1.566774
                  CHANNELS 3 Zrotation Xrotation Yrotation
                  JOINT LeftHand
                  {
                     OFFSET 30.320732 0.093898 1.124376
                     CHANNELS 3 Zrotation Xrotation Yrotation
                     End Site
                     {
                        OFFSET 18.418731 -0.660000 1.653201
                     }
                  }
               }
            }
         }
         JOINT RightShoulder
         {
            OFFSET -9.889000 -0.398477 -0.242000
            CHANNELS 3 Zrotation Xrotation Yrotation
            JOINT RightArm
            {
               OFFSET -11.310971 -0.003718 0.354335
               CHANNELS 3 Zrotation Xrotation Yrotation
               JOINT RightForeArm
               {
                  OFFSET -36.186809 0.109058 -1.566774
                  CHANNELS 3 Zrotation Xrotation Yrotation
                  JOINT RightHand
                  {
                     OFFSET -30.241313 0.093898 1.124376
                     CHANNELS 3 Zrotation Xrotation Yrotation
                     End Site
                     {
                        OFFSET -18.294322 -0.660000 1.653201
                     }
                  }
               }
            }
         }
      }
   }
   JOINT LeftUpLeg
   {
      OFFSET 9.840380 -9.533777 0.111817
      CHANNELS 3 Zrotation Xrotation Yrotation
      JOINT LeftLeg
      {
         OFFSET 0.000000 -48.864969 1.509970
         CHANNELS 3 Zrotation Xrotation Yrotation
         JOINT LeftFoot
         {
            OFFSET -0.278904 -46.301641 -1.606649
            CHANNELS 3 Zrotation Xrotation Yrotation
            JOINT LeftToes
            {
               OFFSET -0.044000 -4.856599 9.349010
               CHANNELS 3 Zrotation Xrotation Yrotation
               End Site
               {
                  OFFSET 0.088000 -0.052193 10.757769
               }
            }
         }
      }
   }
}
MOTION
Frames: 7
Frame Time: 0.016667
-181.469590 104.534348 -502.888329 36.644563 -48.795087 38.804507 -24.254319 44.818769 45.987940 12.973937 17.148392 -28.867716 -22.710852 29.544636 -3.659261 -6.642546 -55.824297 -20.449229 -12.406318 57.656393 150.869098 3.828640 -7.580661 -152.498877 31.444483 37.344452 7.467235 25.363728 64.434072 -34.907338 512.207470 -73.928041 466.276032 21.884181 -22.956348 -41.310722 -71.905178 -16.379289 -68.327655 -21.036484 66.283427 69.102868 102.062438 114.928998 203.257168 21.922727 193.366166 63.731744 3.949150 2.069786 41.845359 -7.610049 18.955838 54.239850 28.410648 33.679048 2.054507 -44.766535 20.485044 15.820269 21.956024 -34.428549 -55.218531
-180.528600 105.112799 -506.126434 32.037559 -49.603579 32.903572 -22.330591 41.649653 46.387643 11.426906 17.695784 -28.657671 -22.282299 27.577913 -4.486656 -7.078633 -55.311131 -19.580530 -10.606515 57.022248 149.178749 3.852025 -7.049847 -152.127028 21.230847 40.998887 12.783556 24.076852 63.364252 -34.656674 512.294678 -73.676240 467.930905 22.514329 -23.535741 -41.863773 -76.295330 -17.276796 -73.477638 -18.365651 64.425104 67.112974 100.172593 118.694071 208.303230 22.436186 198.003141 66.012535 1.750049 7.184443 28.744605 -6.278621 19.629262 45.954206 32.677544 31.034020 -6.797406 -49.545728 22.279216 15.484201 24.114031 -35.388549 -57.716492
-179.522226 106.216620 -509.519150 27.238062 -49.296194 26.959470 -20.022510 36.573283 47.733108 10.035929 21.223250 -26.994689 -5.751029 23.055882 -6.193038 -7.794318 -55.912953 -18.554463 -9.125561 55.809247 147.596686 3.922592 -6.679256 -152.611780 11.889327 41.486398 18.893195 23.392016 62.715296 -35.270960 510.544783 -73.889833 469.863849 23.561156 -23.244640 -41.769366 -73.743640 -13.564469 -78.651985 -16.821711 63.274107 66.696060 97.223276 120.951968 213.004531 23.410238 204.595530 69.629721 3.781118 0.351056 44.010959 -3.704434 18.742693 40.558172 31.641292 32.245361 -9.219509 -54.830945 24.449087 16.417642 25.057956 -35.555684 -57.599258
-178.610112 107.136420 -512.762024 21.919607 -47.374998 18.782948 -18.891424 29.488464 50.192007 8.576783 24.995965 -23.872177 10.390581 20.374241 -6.487949 -8.818984 -54.717028 -16.498452 -7.418191 53.444277 145.693973 3.396696 -6.690946 -154.187764 4.043687 39.080208 23.815386 23.722683 61.672722 -36.275155 508.944552 -74.020727 472.968361 24.544789 -22.831330 -41.615581 -75.665908 -14.963348 -81.920087 -11.619441 63.123263 57.691664 91.922482 129.495086 218.304730 28.334862 207.654007 74.063867 2.007258 3.009232 37.079465 -1.237541 15.184086 39.868545 29.994605 36.132944 -12.963783 -47.566377 23.496307 15.652060 24.177031 -36.714637 -55.402482
-177.699201 107.869986 -515.923492 13.306685 -41.353189 7.301313 -15.102580 19.127450 52.662831 8.466727 24.977165 -21.248804 5.183271 20.723924 -7.336070 -8.787026 -50.322064 -14.838876 -6.250337 49.459927 146.538485 2.960630 -4.683119 -156.668926 -2.902014 35.259120 27.956849 25.368217 60.082585 -35.392606 506.606879 -74.296168 477.140568 24.181165 -23.149664 -42.862722 -73.359128 -13.950562 -87.583167 -8.764322 59.809911 56.800454 88.680676 129.168002 225.408592 27.560677 211.134808 74.337156 1.870248 -3.269415 46.826916 0.979274 9.627707 37.118369 24.789419 37.337034 -11.228583 -39.830313 21.517406 14.002634 23.113036 -36.713868 -52.950621
-176.805475 108.624037 -518.847725 4.316936 -32.508876 -4.948939 -10.682166 5.341821 54.184799 10.090248 22.887670 -22.632913 9.686168 19.082051 -8.095632 -8.252171 -47.543608 -14.168146 -3.993991 46.998187 150.538763 6.513463 -2.355434 -157.530896 -8.254711 35.407496 30.276156 26.679062 58.662343 -30.515229 505.546123 -74.481833 480.385728 22.885727 -24.019419 -46.025670 -74.309173 -14.430894 -94.411116 -6.011913 54.783008 53.922469 83.027964 130.585280 232.806260 29.694715 211.602553 76.629313 -0.296972 -3.126283 41.881788 4.639930 3.120435 33.207533 16.836239 36.653595 -3.747785 -30.013589 20.246375 12.661003 22.258089 -34.912628 -50.396834
-175.812433 109.362648 -521.504585 -1.587957 -25.848381 -16.652056 -5.085490 -3.956785 54.466466 11.050918 21.957764 -25.798970 5.877327 15.873495 -8.643380 -7.481909 -45.824210 -14.195632 1.444438 41.859378 152.376630 7.347448 -3.397617 -158.431743 -7.793510 33.965373 31.524113 25.774699 58.016221 -29.644373 502.599415 -74.873217 483.964364 20.114586 -25.593491 -45.923064 -72.666478 -13.556994 -102.312115 -5.139296 48.589488 51.854438 77.297538 132.886986 239.552192 31.529335 213.959405 77.115342 0.179333 -5.160302 45.211860 7.260407 -0.426838 30.024460 10.345004 35.563224 2.947032 -20.291333 17.121136 11.573772 20.482453 -33.758251 -46.881291
